<?xml version="1.0" encoding="UTF-8"?>
<svg width="32px" height="20px" viewBox="0 0 32 20" version="1.1" xmlns="http://www.w3.org/2000/svg" xmlns:xlink="http://www.w3.org/1999/xlink">
    <!-- Generator: Sketch 41 (35326) - http://www.bohemiancoding.com/sketch -->
    <title>Page 1</title>
    <desc>Created with Sketch.</desc>
    <defs>
        <polygon id="path-1" points="0 19.6465854 31.5650909 19.6465854 31.5650909 0.000243902439 0 0.000243902439"></polygon>
    </defs>
    <g id="Welcome" stroke="none" stroke-width="1" fill="none" fill-rule="evenodd">
        <g id="What-is" transform="translate(-24.000000, -25.000000)">
            <g id="Page-1" transform="translate(24.000000, 25.000000)">
                <mask id="mask-2" fill="white">
                    <use xlink:href="#path-1"></use>
                </mask>
                <g id="Clip-2"></g>
                <path d="M21.8923636,8.76234146 L2.80727273,8.76234146 C2.72387879,8.76234146 2.67151515,8.83307317 2.59393939,8.85112195 L9.59127273,1.81112195 C10.0029091,1.39697561 10.0029091,0.724780488 9.59127273,0.310634146 C9.17963636,-0.103512195 8.51151515,-0.103512195 8.09987879,0.310634146 L0.958545455,7.496 C0.321454545,8.1355122 -0.00096969697,8.98429268 -6.28658506e-14,9.82331707 C-0.00096969697,10.6618537 0.321454545,11.5106341 0.958545455,12.151122 L8.09987879,19.336 C8.51151515,19.7501463 9.17963636,19.7501463 9.59127273,19.336 C10.0029091,18.9218537 10.0029091,18.2496585 9.59127273,17.8355122 L2.59393939,10.7955122 C2.67151515,10.8140488 2.72387879,10.8842927 2.80727273,10.8842927 L21.8918788,10.8842927 C26.0688485,10.8920976 29.4487273,14.2920976 29.456,18.4945366 C29.456,19.0803902 29.9282424,19.5555122 30.5105455,19.5555122 C31.0928485,19.5555122 31.5650909,19.0803902 31.5650909,18.4945366 C31.5650909,13.1194146 27.2349091,8.76282927 21.8923636,8.76234146" id="Fill-1" fill="#7D7D7D" mask="url(#mask-2)"></path>
            </g>
        </g>
    </g>
</svg>